<svg width="130.000000" height="22.000000" viewBox="0 0 130 22" fill="none" xmlns="http://www.w3.org/2000/svg" >
	<desc>
			Created with Pixso.
	</desc>
	<defs>
		<clipPath id="clip28_592">
			<rect width="130.000000" height="21.999998" fill="white" fill-opacity="0"/>
		</clipPath>
	</defs>
	<g clip-path="url(#clip28_592)">
		<path d="M0 11.29C0 5.07 3.31 1.29 8.74 1.29C12.86 1.29 16.17 3.85 16.78 7.62C16.88 8.03 16.57 8.34 16.17 8.34L13.56 8.34C13.26 8.34 13.06 8.13 12.96 7.83C12.45 5.89 10.85 4.66 8.74 4.66C5.82 4.66 4.01 7.21 4.01 11.29C4.01 15.38 5.82 17.93 8.84 17.93C10.95 17.93 12.45 16.81 13.06 14.97C13.16 14.66 13.36 14.46 13.66 14.46L16.27 14.46C16.67 14.46 16.98 14.87 16.88 15.17C16.27 18.85 13.06 21.29 8.84 21.29C3.31 21.29 0 17.42 0 11.29ZM79.37 20.07L79.37 5.58C79.37 5.28 79.17 5.07 78.87 5.07L74.45 5.07C74.05 5.07 73.65 4.76 73.65 4.25L73.65 2.52C73.65 2.11 73.95 1.7 74.45 1.7L88.12 1.7C88.52 1.7 88.92 2.01 88.92 2.52L88.92 4.25C88.92 4.66 88.62 5.07 88.12 5.07L83.69 5.07C83.39 5.07 83.19 5.28 83.19 5.58L83.19 20.17C83.19 20.58 82.89 20.89 82.49 20.89L79.98 20.89C79.67 20.79 79.37 20.48 79.37 20.07ZM21.5 20.79L24.41 20.79C24.71 20.79 25.01 20.58 24.91 20.38L24.91 14.36C24.91 14.05 25.11 13.85 25.42 13.85L27.73 13.85C28.03 13.85 28.33 13.95 28.43 14.25L31.34 20.38C31.44 20.58 31.65 20.68 31.85 20.68L35.16 20.68C35.46 20.68 35.76 20.28 35.56 19.97L32.45 13.95C32.25 13.64 32.35 13.13 32.75 12.93C34.46 11.91 35.46 9.97 35.46 7.83C35.46 4.15 32.95 1.81 28.83 1.81L21.8 1.81C21.4 1.81 21 2.21 21 2.62L21 20.28C21 20.58 21.2 20.79 21.5 20.79ZM51.74 20.79L40.69 20.79C40.29 20.79 39.99 20.48 39.99 20.07L39.99 2.52C39.99 2.11 40.29 1.81 40.69 1.81L51.74 1.81C52.14 1.81 52.44 2.11 52.44 2.52L52.44 4.46C52.44 4.87 52.14 5.17 51.74 5.17L44.41 5.17C44.1 5.17 43.9 5.38 43.9 5.68L43.9 9.15C43.9 9.46 44.1 9.66 44.41 9.66L51.24 9.66C51.64 9.66 51.94 9.97 51.94 10.38L51.94 12.11C51.94 12.52 51.64 12.83 51.24 12.83L44.41 12.83C44.1 12.83 43.9 13.03 43.9 13.34L43.9 17.21C43.9 17.52 44.1 17.72 44.41 17.72L51.74 17.72C52.14 17.72 52.44 18.03 52.44 18.44L52.44 20.38C52.44 20.48 52.14 20.79 51.74 20.79ZM61.59 16.19L67.32 16.19C67.52 16.19 67.82 16.4 67.82 16.6L68.92 20.38C69.02 20.58 69.22 20.79 69.53 20.79L72.44 20.79C72.84 20.79 73.14 20.38 73.04 19.97L67.01 2.21C66.91 2.01 66.71 1.81 66.41 1.81L62.69 1.81C62.39 1.81 62.19 2.01 62.09 2.21L56.06 19.97C55.96 20.38 56.26 20.79 56.66 20.79L59.28 20.79C59.58 20.79 59.78 20.68 59.88 20.38L60.99 16.6C61.09 16.4 61.29 16.19 61.59 16.19ZM93.24 20.79L104.29 20.79C104.69 20.79 105 20.48 105 20.38L105 18.44C105 18.03 104.69 17.72 104.29 17.72L96.96 17.72C96.66 17.72 96.45 17.52 96.45 17.21L96.45 13.34C96.45 13.03 96.66 12.83 96.96 12.83L103.79 12.83C104.19 12.83 104.49 12.52 104.49 12.11L104.49 10.38C104.49 9.97 104.19 9.66 103.79 9.66L96.96 9.66C96.66 9.66 96.45 9.46 96.45 9.15L96.45 5.68C96.45 5.38 96.66 5.17 96.96 5.17L104.29 5.17C104.69 5.17 105 4.87 105 4.46L105 2.52C105 2.11 104.69 1.81 104.29 1.81L93.24 1.81C92.84 1.81 92.54 2.11 92.54 2.52L92.54 20.07C92.54 20.48 92.84 20.79 93.24 20.79ZM25.52 10.89C25.21 10.89 25.01 10.68 25.01 10.38L25.11 10.38L25.11 5.48C25.11 5.17 25.32 4.97 25.62 4.97L28.53 4.97C30.44 4.97 31.65 6.09 31.65 7.93C31.65 9.76 30.54 10.89 28.53 10.89L25.52 10.89ZM66.51 13.23L62.39 13.23C62.19 13.23 62.09 13.03 62.19 12.83L64.4 5.68L64.6 5.68L66.81 12.83C66.81 13.03 66.71 13.23 66.51 13.23Z" fill="#1E212C" fill-opacity="1.000000" fill-rule="evenodd"/>
		<path d="M111.5 1.59L117.7 9.7C118.39 10.5 118.39 11.7 117.7 12.29L111.5 20.4C111.1 20.79 110.6 21 110.1 21C109.6 21 109.1 20.79 108.7 20.4C108 19.59 108 18.4 108.7 17.59L113.6 11L108.7 4.4C108 3.59 108 2.4 108.7 1.59C109.1 1.2 109.6 1 110.1 1C110.6 1 111.1 1.2 111.5 1.59ZM126.54 1.59L120.34 9.7C119.64 10.5 119.64 11.7 120.34 12.29L126.54 20.4C126.94 20.79 127.44 21 127.94 21C128.44 21 128.94 20.79 129.34 20.4C130.04 19.59 130.04 18.4 129.34 17.59L124.44 11L129.34 4.4C130.04 3.59 130.04 2.4 129.34 1.59C128.94 1.2 128.44 1 127.94 1C127.44 1 126.94 1.2 126.54 1.59Z" fill="#FF5A30" fill-opacity="1.000000" fill-rule="evenodd"/>
	</g>
</svg>
