<svg width="13.333008" height="13.333984" viewBox="0 0 13.333 13.334" fill="none" xmlns="http://www.w3.org/2000/svg" xmlns:xlink="http://www.w3.org/1999/xlink">
	<desc>
			Created with Pixso.
	</desc>
	<defs/>
	<path id="Vector" d="M11.91 0.25C12.25 -0.09 12.75 -0.09 13.08 0.25C13.41 0.58 13.41 1.08 13.08 1.41L1.41 13.08C1.08 13.41 0.58 13.41 0.25 13.08C-0.09 12.75 -0.09 12.25 0.25 11.91L3 9.16L2.5 9.16C1.58 9.16 0.83 8.41 0.83 7.5L0.83 4.16C0.83 3.25 1.58 2.5 2.5 2.5L4.41 2.5C4.83 2.5 5.16 2.33 5.5 2.16L7.83 0.25C8.33 -0.17 9.16 0.25 9.16 0.91L9.16 3L11.91 0.25ZM9.16 10.75C9.16 11.5 8.41 11.83 7.83 11.41L6.08 10.08L9.16 7L9.16 10.75Z" fill="#FFFFFF" fill-opacity="1.000000" fill-rule="evenodd"/>
</svg>
